{"glyphs":{":":{"x_min":0,"x_max":280,"ha":280,"o":"m 206 456 l 206 308 l 74 308 l 74 456 z m 206 147 l 206 0 l 74 0 l 74 147 z m 147 484 z"},"$":{"x_min":0,"x_max":543,"ha":543,"o":"m 125 157 q 134 121 149 101 q 164 82 188 73 q 212 63 252 63 l 252 282 q 251 282 222 298 q 199 309 176 323 q 153 336 134 351 q 115 366 101 382 q 87 398 79 415 q 70 432 66 448 q 62 465 62 485 q 62 526 76 557 q 91 587 117 609 q 143 631 177 644 q 212 656 252 661 l 252 747 l 310 747 l 310 664 q 340 664 368 661 q 396 659 422 654 q 448 649 484 639 l 484 520 l 417 520 q 405 566 379 586 q 354 606 310 607 l 310 405 l 332 394 q 359 380 380 368 q 400 356 419 342 q 437 329 452 312 q 468 295 478 277 q 488 258 493 238 q 498 217 498 194 q 498 140 473 100 q 449 60 406 37 q 363 15 310 8 l 310 -76 l 252 -76 l 252 6 q 208 7 156 14 q 105 21 58 34 l 58 157 z m 252 429 l 252 604 q 217 599 198 577 q 179 556 179 524 q 179 492 196 471 q 214 449 252 429 z m 310 257 l 310 68 q 343 74 362 97 q 381 121 381 158 q 381 190 363 214 q 346 238 310 257 z"},"?":{"x_min":0,"x_max":452,"ha":452,"o":"m 154 218 l 154 223 q 154 245 159 262 q 165 279 178 302 q 191 325 218 364 q 249 409 262 448 q 276 486 276 523 q 276 562 267 585 q 258 607 243 615 q 229 624 210 624 q 178 624 159 601 q 141 578 135 535 l 44 535 l 44 626 q 108 655 148 665 q 189 674 233 674 q 297 674 339 656 q 381 639 399 609 q 417 579 417 540 q 417 515 412 493 q 406 471 393 450 q 380 428 360 404 q 339 380 303 341 q 278 315 265 296 q 253 278 248 261 q 242 244 242 222 l 242 218 z m 265 147 l 265 0 l 134 0 l 134 147 z"},"<":{"x_min":0,"x_max":592,"ha":592,"o":"m 59 233 l 59 338 l 534 530 l 534 426 l 157 286 l 534 145 l 534 41 z"},"'":{"x_min":0,"x_max":251,"ha":251,"o":"m 199 699 l 156 457 l 85 457 l 61 699 z"},"=":{"x_min":0,"x_max":592,"ha":592,"o":"m 67 343 l 67 445 l 525 445 l 525 343 z m 67 126 l 67 228 l 525 228 l 525 126 z"},"a":{"x_min":0,"x_max":535,"ha":535,"o":"m 331 64 l 323 66 q 283 27 245 10 q 208 -8 165 -8 q 123 -8 92 8 q 61 23 45 50 q 29 78 29 113 q 29 185 100 226 q 170 268 314 278 l 314 325 q 314 370 304 395 q 293 419 277 429 q 261 439 239 439 q 216 439 200 432 q 184 424 170 402 q 157 380 151 342 l 59 342 l 59 431 q 104 451 133 461 q 163 472 192 479 q 221 486 244 489 q 267 492 290 492 q 349 492 385 477 q 420 461 438 426 q 455 391 455 329 l 455 138 q 455 106 457 88 q 458 71 461 62 q 464 54 469 49 q 474 43 481 40 q 488 37 508 32 l 508 0 l 326 0 z m 314 230 q 239 229 202 202 q 166 176 166 125 q 166 95 183 79 q 199 63 229 63 q 251 63 271 75 q 291 87 303 107 q 314 127 314 149 z"},"L":{"x_min":0,"x_max":551,"ha":551,"o":"m 303 667 l 303 634 q 286 629 275 624 q 265 618 260 608 q 254 599 252 583 q 250 568 250 544 l 250 58 l 345 58 q 374 58 391 67 q 408 76 420 94 q 433 112 442 142 q 451 171 456 197 l 523 197 l 512 0 l 47 0 l 47 32 q 65 37 75 43 q 86 49 91 59 q 96 69 98 84 q 99 100 99 123 l 99 543 q 99 566 98 582 q 97 598 92 607 q 86 617 76 623 q 65 629 47 634 l 47 667 z"},"3":{"x_min":0,"x_max":592,"ha":592,"o":"m 71 506 l 71 622 q 195 674 295 674 q 355 674 402 658 q 448 641 473 609 q 498 577 498 532 q 498 490 481 459 q 465 427 435 404 q 405 380 357 358 l 357 354 q 399 346 434 325 q 469 304 490 269 q 511 234 511 188 q 511 131 483 87 q 456 42 399 17 q 343 -8 263 -8 q 208 -8 155 2 q 102 12 62 30 l 62 153 l 150 153 q 164 97 190 72 q 216 47 258 47 q 361 47 361 175 q 361 244 325 277 q 289 311 214 311 l 176 311 l 176 367 q 261 370 305 406 q 349 443 349 512 q 349 566 327 594 q 305 621 263 621 q 239 621 219 611 q 198 600 182 574 q 167 548 159 506 z"},";":{"x_min":0,"x_max":280,"ha":280,"o":"m 206 456 l 206 308 l 74 308 l 74 456 z m 196 147 q 201 127 203 103 q 206 79 206 59 q 206 19 192 -13 q 179 -44 150 -74 q 121 -105 68 -142 l 31 -100 q 52 -81 64 -61 q 76 -40 81 -15 q 86 10 86 47 q 86 91 80 147 z m 147 484 z"},"J":{"x_min":0,"x_max":341,"ha":341,"o":"m 246 54 q 246 1 238 -31 q 230 -64 211 -89 q 188 -120 151 -144 q 106 -171 42 -191 l 17 -131 q 47 -118 61 -106 q 76 -95 82 -81 q 89 -68 92 -48 q 95 -27 95 11 l 95 543 q 95 566 94 582 q 92 598 87 607 q 82 617 72 623 q 61 629 42 634 l 42 667 l 299 667 l 299 634 q 278 629 269 623 q 259 616 255 607 q 250 599 248 585 q 246 571 246 543 z"},"V":{"x_min":0,"x_max":634,"ha":634,"o":"m 463 506 q 470 527 474 545 q 479 563 479 583 q 479 607 466 620 q 454 632 428 634 l 428 667 l 638 667 l 638 634 q 620 631 607 622 q 594 613 583 596 q 573 580 559 542 l 354 -3 l 241 -3 l 80 543 q 69 580 62 595 q 55 611 43 620 q 31 630 10 634 l 10 667 l 280 667 l 280 634 q 255 631 243 620 q 230 609 230 588 q 230 572 233 557 q 236 542 246 508 l 342 157 z"},"\"":{"x_min":0,"x_max":422,"ha":422,"o":"m 190 699 l 152 461 l 81 461 l 61 699 z m 370 699 l 332 461 l 261 461 l 241 699 z"},"7":{"x_min":0,"x_max":592,"ha":592,"o":"m 542 634 l 271 -1 l 171 -1 l 171 32 l 416 529 l 416 536 l 199 536 q 177 536 164 533 q 151 529 143 522 q 134 514 129 502 q 124 490 118 464 l 62 464 l 74 667 l 542 667 z"},"S":{"x_min":0,"x_max":513,"ha":513,"o":"m 108 165 q 120 106 149 78 q 177 49 232 49 q 261 49 284 59 q 307 69 321 91 q 335 112 335 145 q 335 175 324 198 q 312 220 288 240 q 263 260 218 282 q 180 301 149 322 q 119 342 97 367 q 75 392 63 421 q 51 450 51 487 q 51 547 81 589 q 111 631 167 653 q 224 674 298 674 q 341 674 381 670 q 420 665 471 653 l 471 512 l 404 512 q 395 550 381 573 q 366 596 345 606 q 323 617 291 617 q 263 617 241 607 q 219 598 206 578 q 193 559 193 532 q 193 503 204 483 q 215 462 241 442 q 267 422 316 397 q 376 366 411 336 q 445 306 462 270 q 478 235 478 188 q 478 128 450 84 q 422 40 369 16 q 316 -8 246 -8 q 196 -8 142 -2 q 88 3 41 14 l 41 165 z"},"}":{"x_min":0,"x_max":393,"ha":393,"o":"m 32 699 q 121 699 172 680 q 223 661 245 622 q 267 584 267 520 l 267 380 q 267 338 276 314 q 286 290 304 281 q 322 271 354 271 l 354 217 q 322 217 304 208 q 286 198 276 174 q 267 150 267 108 l 267 -31 q 267 -96 245 -134 q 223 -172 172 -191 q 121 -210 32 -210 l 21 -210 l 21 -157 q 53 -157 70 -153 q 86 -149 97 -141 q 107 -134 114 -121 q 121 -108 125 -85 q 128 -62 128 -25 l 128 66 q 128 114 138 146 q 148 179 172 202 q 195 225 236 240 l 236 249 q 195 263 171 288 q 146 312 137 344 q 128 376 128 422 l 128 513 q 128 550 125 573 q 121 596 114 609 q 107 622 97 630 q 86 637 70 641 q 53 646 21 646 l 21 699 z"},"Z":{"x_min":0,"x_max":566,"ha":566,"o":"m 219 58 l 358 58 q 385 58 403 69 q 421 80 435 104 q 448 127 462 186 l 528 186 l 528 0 l 39 0 l 39 32 l 352 608 l 219 608 q 187 608 168 597 q 150 585 137 559 q 124 533 114 490 l 47 490 l 47 667 l 531 667 l 531 634 z"},"x":{"x_min":0,"x_max":525,"ha":525,"o":"m 322 268 l 437 105 q 453 83 465 68 q 478 53 490 44 q 501 36 516 32 l 516 0 l 278 0 l 278 32 q 308 36 308 58 q 308 63 307 69 q 305 74 302 79 q 299 84 291 97 l 235 176 l 184 113 q 167 93 163 83 q 159 74 159 62 q 159 51 168 42 q 177 34 196 32 l 196 0 l 8 0 l 8 32 q 29 37 50 54 q 71 71 102 105 l 204 221 l 89 383 q 78 399 70 409 q 62 419 54 428 q 46 437 39 442 q 33 447 27 449 q 21 452 16 452 l 16 484 l 252 484 l 252 452 q 222 446 222 425 q 222 417 226 407 q 230 398 240 385 l 291 313 l 340 375 q 352 390 357 400 q 361 410 361 420 q 361 434 351 443 q 341 451 324 452 l 324 484 l 510 484 l 510 452 q 488 447 470 431 q 451 416 416 374 z"},")":{"x_min":0,"x_max":408,"ha":408,"o":"m 21 701 q 112 701 170 676 q 229 652 262 602 q 295 552 310 470 q 325 388 325 246 q 325 104 310 22 q 295 -60 262 -111 q 229 -162 171 -187 q 112 -212 21 -212 l 21 -159 q 52 -159 76 -152 q 99 -146 117 -128 q 138 -107 150 -69 q 165 -24 171 52 q 178 127 178 242 q 178 348 172 421 q 166 500 151 548 q 139 587 121 609 q 105 627 84 637 q 60 647 21 647 z"},"&":{"x_min":0,"x_max":740,"ha":740,"o":"m 457 55 q 406 20 357 6 q 309 -8 246 -8 q 148 -8 94 34 q 40 75 40 151 q 40 176 47 197 q 53 218 65 237 q 78 255 96 273 q 115 291 140 308 q 165 325 209 348 q 182 386 170 409 q 158 432 151 456 q 145 480 145 508 q 145 556 172 594 q 199 631 250 653 q 300 675 360 675 q 439 675 485 642 q 530 610 530 549 q 530 526 524 507 q 517 487 501 467 q 485 447 459 427 q 433 406 372 370 q 402 329 447 277 q 492 225 523 191 q 545 218 556 243 q 566 268 566 294 q 566 320 555 331 q 544 342 521 344 l 521 376 l 673 376 l 673 348 q 673 341 668 320 q 666 307 661 294 q 657 280 652 268 q 646 254 640 242 q 633 229 625 217 q 617 205 608 193 q 598 181 587 169 q 576 158 564 147 q 586 122 602 107 q 618 93 630 86 q 642 80 655 80 q 667 80 677 85 q 687 90 706 106 l 737 66 q 699 27 664 10 q 628 -8 591 -8 q 551 -8 521 7 q 491 22 457 55 z m 336 417 q 385 447 408 480 q 432 514 432 549 q 432 583 414 604 q 396 624 366 624 q 345 624 328 615 q 311 605 301 585 q 291 565 291 537 q 291 506 301 479 q 312 453 336 417 z m 411 101 q 374 144 323 204 q 273 264 247 298 q 218 275 204 247 q 190 219 190 184 q 190 131 221 102 q 252 72 306 72 q 338 72 362 79 q 385 86 411 101 z"},"_":{"x_min":0,"x_max":371,"ha":371,"o":"m 0 -127 l 0 -51 l 371 -51 l 371 -127 z"},"v":{"x_min":0,"x_max":531,"ha":531,"o":"m 253 484 l 253 452 q 230 448 219 439 q 208 430 208 413 q 208 389 221 352 l 292 138 l 369 325 q 379 349 384 366 q 389 384 389 401 q 389 422 377 435 q 365 449 344 452 l 344 484 l 534 484 l 534 452 q 520 447 511 441 q 502 435 495 424 q 487 414 477 394 q 466 374 447 333 l 295 -5 l 203 -5 l 74 367 q 61 405 52 420 q 44 434 34 442 q 24 449 9 452 l 9 484 z"},"O":{"x_min":0,"x_max":695,"ha":695,"o":"m 339 -8 q 196 -8 124 76 q 52 160 52 328 q 52 438 87 515 q 122 593 189 634 q 257 674 351 674 q 497 674 570 591 q 644 507 644 342 q 644 250 622 183 q 600 117 560 75 q 520 32 464 12 q 408 -8 339 -8 z m 207 341 q 207 193 242 121 q 278 49 351 49 q 388 49 415 70 q 441 90 457 126 q 474 163 481 212 q 488 262 488 322 q 488 419 472 485 q 457 550 426 584 q 395 617 347 617 q 276 617 241 550 q 207 482 207 341 z"},"(":{"x_min":0,"x_max":408,"ha":408,"o":"m 387 -212 q 295 -212 237 -188 q 178 -163 146 -112 q 113 -62 98 20 q 83 102 83 242 q 83 384 98 466 q 113 548 146 599 q 179 650 238 676 q 296 701 387 701 l 387 647 q 356 647 333 641 q 309 634 292 617 q 271 596 258 557 q 244 513 237 437 q 230 361 230 246 q 230 140 236 67 q 243 -12 257 -60 q 270 -99 288 -121 q 303 -139 324 -148 q 348 -159 387 -159 z"},"C":{"x_min":0,"x_max":573,"ha":573,"o":"m 532 651 l 532 510 l 465 510 q 454 565 428 591 q 403 617 362 617 q 285 617 245 543 q 206 469 206 324 q 206 188 242 119 q 278 49 348 49 q 383 49 406 61 q 428 73 442 97 q 455 121 465 165 l 532 165 l 532 17 q 478 4 434 -2 q 389 -8 341 -8 q 240 -8 176 29 q 111 65 81 139 q 50 213 50 327 q 50 433 86 511 q 122 589 192 632 q 262 674 359 674 q 408 674 448 669 q 488 664 532 651 z"},"W":{"x_min":0,"x_max":961,"ha":961,"o":"m 792 499 q 799 521 804 544 q 809 567 809 583 q 809 608 797 620 q 784 632 759 634 l 759 667 l 963 667 l 963 634 q 945 630 933 620 q 920 610 911 592 q 901 574 886 532 l 703 -3 l 587 -3 l 477 455 l 346 -3 l 224 -3 l 77 543 q 66 583 58 599 q 49 615 39 623 q 29 630 13 634 l 13 667 l 276 667 l 276 634 q 250 631 238 620 q 226 609 226 588 q 226 562 240 508 l 325 168 l 465 667 l 575 667 l 689 168 z"},"A":{"x_min":0,"x_max":652,"ha":652,"o":"m 394 207 l 186 207 l 169 160 q 163 141 158 122 q 154 104 154 83 q 154 36 205 32 l 205 0 l -4 0 l -4 32 q 14 34 28 45 q 42 56 53 74 q 64 93 77 127 l 280 670 l 411 670 l 572 123 q 583 86 590 71 q 597 56 609 46 q 621 37 642 32 l 642 0 l 372 0 l 372 32 q 397 35 410 46 q 422 58 422 78 q 422 93 418 112 q 415 130 407 159 z m 204 264 l 380 264 l 302 539 z"},"f":{"x_min":0,"x_max":326,"ha":326,"o":"m 41 32 q 64 39 73 47 q 82 56 86 71 q 90 85 90 123 l 90 423 l 30 423 l 30 457 q 53 460 62 465 q 71 469 77 476 q 83 483 86 494 q 90 505 91 523 q 99 611 156 656 q 214 701 319 701 q 361 701 394 694 l 394 595 l 327 595 q 319 622 309 634 q 299 647 283 647 q 262 647 250 633 q 239 619 235 594 q 231 568 231 521 l 231 484 l 325 484 l 325 423 l 231 423 l 231 123 q 231 86 235 71 q 239 56 249 47 q 259 38 284 32 l 284 0 l 41 0 z"},"Q":{"x_min":0,"x_max":695,"ha":695,"o":"m 451 7 l 481 -34 q 493 -50 503 -62 q 513 -74 525 -83 q 537 -92 547 -95 q 558 -99 571 -99 q 586 -99 597 -96 q 607 -94 619 -87 q 631 -80 646 -67 l 681 -109 q 648 -140 623 -157 q 597 -173 574 -180 q 550 -187 519 -187 q 485 -187 458 -179 q 431 -171 405 -151 q 379 -131 356 -96 l 298 -6 q 219 2 165 39 q 111 76 81 148 q 52 219 52 328 q 52 438 87 515 q 122 593 189 634 q 257 674 351 674 q 497 674 570 591 q 644 507 644 342 q 644 208 595 123 q 547 38 451 7 z m 207 341 q 207 193 242 121 q 278 49 351 49 q 388 49 415 70 q 441 90 457 126 q 474 163 481 212 q 488 262 488 322 q 488 419 472 485 q 457 550 426 584 q 395 617 347 617 q 276 617 241 550 q 207 482 207 341 z"},"w":{"x_min":0,"x_max":798,"ha":798,"o":"m 489 -5 l 397 310 l 290 -5 l 191 -5 l 73 367 q 62 401 55 416 q 47 432 38 440 q 29 449 13 452 l 13 484 l 252 484 l 252 452 q 229 448 218 438 q 206 428 206 410 q 206 398 210 383 q 214 368 219 352 l 280 149 l 392 484 l 483 484 l 578 149 l 642 325 q 651 352 655 370 q 659 388 659 401 q 659 422 647 435 q 635 449 614 452 l 614 484 l 798 484 l 798 452 q 783 447 775 441 q 767 436 760 425 q 753 415 744 396 q 735 376 718 333 l 586 -5 z"},"-":{"x_min":0,"x_max":337,"ha":337,"o":"m 284 215 l 53 215 l 53 318 l 284 318 z"},"E":{"x_min":0,"x_max":578,"ha":578,"o":"m 531 667 l 531 511 l 464 511 q 448 558 437 574 q 426 590 410 600 q 395 609 357 609 l 250 609 l 250 375 l 315 375 q 336 375 349 381 q 361 387 369 401 q 377 416 384 445 l 439 445 l 439 247 l 384 247 q 377 275 369 290 q 361 305 349 312 q 338 318 315 318 l 250 318 l 250 57 l 356 57 q 374 57 385 59 q 397 62 406 67 q 416 72 424 82 q 433 91 439 102 q 446 112 453 130 q 460 147 469 178 l 536 178 l 527 0 l 47 0 l 47 32 q 65 37 75 43 q 86 48 91 58 q 96 68 98 84 q 99 99 99 123 l 99 543 q 99 566 98 582 q 97 598 92 607 q 86 617 76 623 q 65 629 47 634 l 47 667 z"},"s":{"x_min":0,"x_max":459,"ha":459,"o":"m 105 132 q 117 87 142 65 q 167 43 210 43 q 247 43 265 60 q 284 76 284 108 q 284 128 276 142 q 267 156 247 169 q 228 182 180 203 q 153 215 129 229 q 105 243 88 261 q 70 279 60 301 q 50 323 50 350 q 50 394 75 426 q 101 458 148 475 q 195 492 255 492 q 291 492 325 489 q 359 486 414 477 l 414 363 l 349 363 q 338 394 324 411 q 311 428 295 435 q 279 441 256 441 q 224 441 205 427 q 186 412 186 386 q 186 367 193 354 q 200 341 217 328 q 235 316 285 295 q 331 276 360 255 q 389 234 404 207 q 419 180 419 144 q 419 104 404 76 q 390 47 363 29 q 337 10 300 1 q 263 -8 219 -8 q 138 -8 40 15 l 40 132 z"},">":{"x_min":0,"x_max":592,"ha":592,"o":"m 59 41 l 59 145 l 436 286 l 59 426 l 59 530 l 534 338 l 534 233 z"},"l":{"x_min":0,"x_max":308,"ha":308,"o":"m 225 141 q 225 95 228 77 q 230 60 240 49 q 249 39 273 32 l 273 0 l 34 0 l 34 32 q 49 36 57 40 q 65 45 70 51 q 75 57 78 67 q 82 76 83 93 q 83 110 83 141 l 83 522 q 83 564 83 584 q 82 604 80 617 q 78 630 73 638 q 67 646 58 651 q 49 656 28 660 l 28 692 l 164 699 l 225 699 z"},"8":{"x_min":0,"x_max":592,"ha":592,"o":"m 430 352 l 431 346 q 488 324 517 282 q 546 241 546 183 q 546 125 515 82 q 484 39 427 15 q 369 -8 291 -8 q 217 -8 162 13 q 107 35 77 77 q 47 119 47 175 q 47 217 62 248 q 78 280 103 301 q 128 322 164 338 l 163 344 q 55 391 55 500 q 55 550 86 590 q 117 629 174 652 q 231 674 301 674 q 420 674 480 631 q 541 587 541 508 q 541 455 513 416 q 486 376 430 352 z m 201 504 q 201 440 226 406 q 251 372 300 372 q 347 372 371 404 q 395 436 395 495 q 395 556 370 588 q 345 620 299 620 q 250 620 226 590 q 201 561 201 504 z m 195 187 q 195 117 221 82 q 247 47 297 47 q 329 47 351 62 q 374 76 385 106 q 397 137 397 179 q 397 222 385 253 q 373 285 350 302 q 327 319 296 319 q 260 319 237 302 q 215 284 205 255 q 195 226 195 187 z"},"\\":{"x_min":0,"x_max":505,"ha":505,"o":"m 124 699 l 478 -210 l 381 -210 l 29 699 z"},"e":{"x_min":0,"x_max":531,"ha":531,"o":"m 484 89 q 434 36 385 14 q 336 -8 273 -8 q 159 -8 102 54 q 44 117 44 239 q 44 318 74 376 q 104 433 158 463 q 212 492 284 492 q 328 492 362 482 q 395 472 419 453 q 443 435 458 409 q 477 378 486 339 q 496 298 497 241 l 187 241 q 188 152 219 111 q 250 69 313 69 q 350 69 380 83 q 410 97 444 132 z m 352 293 q 350 368 333 405 q 315 441 276 441 q 238 441 216 403 q 194 365 189 293 z"},"b":{"x_min":0,"x_max":591,"ha":591,"o":"m 78 531 q 78 566 77 584 q 77 603 74 617 q 72 630 66 638 q 61 646 52 651 q 43 656 22 660 l 22 692 l 159 699 l 219 699 l 219 419 l 219 419 q 249 446 271 460 q 292 475 317 484 q 342 492 371 492 q 458 492 501 431 q 544 370 544 248 q 544 163 519 106 q 493 49 442 21 q 392 -8 317 -8 q 240 -8 176 20 l 140 -8 l 78 1 z m 219 160 q 219 100 240 72 q 260 43 304 43 q 349 43 372 90 q 396 137 396 225 q 396 321 375 368 q 354 416 310 416 q 288 416 267 404 q 246 393 232 372 q 219 352 219 327 z"},"%":{"x_min":0,"x_max":976,"ha":976,"o":"m 214 252 q 129 252 88 304 q 47 355 47 459 q 47 532 69 581 q 91 629 130 652 q 169 674 220 674 q 268 674 301 659 q 333 644 353 617 q 373 590 381 552 q 390 514 390 469 q 390 362 345 307 q 301 252 214 252 z m 157 468 q 157 406 163 369 q 169 332 183 314 q 197 296 220 296 q 238 296 250 308 q 261 320 268 341 q 275 362 278 391 q 280 420 280 456 q 280 524 273 562 q 266 600 252 615 q 239 630 219 630 q 196 630 182 613 q 169 595 163 560 q 157 524 157 468 z m 750 667 l 319 -47 l 226 -47 l 657 667 z m 753 -55 q 668 -55 627 -3 q 586 48 586 152 q 586 225 608 274 q 630 322 669 345 q 708 367 759 367 q 807 367 840 352 q 872 337 892 310 q 912 283 920 245 q 929 207 929 162 q 929 55 884 0 q 840 -55 753 -55 z m 696 161 q 696 99 702 62 q 708 25 722 7 q 736 -11 759 -11 q 777 -11 789 1 q 800 13 807 34 q 814 55 817 84 q 819 113 819 149 q 819 217 812 255 q 805 292 792 308 q 778 323 758 323 q 735 323 721 305 q 708 288 702 252 q 696 217 696 161 z"},"m":{"x_min":0,"x_max":890,"ha":890,"o":"m 224 418 l 229 417 q 274 458 310 475 q 345 492 382 492 q 418 492 442 483 q 466 474 483 456 q 500 438 510 409 q 559 455 595 474 q 632 492 671 492 q 710 492 736 482 q 762 472 778 450 q 795 429 802 396 q 810 364 810 319 l 810 141 q 810 120 811 101 q 812 82 814 71 q 817 60 823 52 q 828 45 837 41 q 846 36 859 32 l 859 0 l 624 0 l 624 32 q 646 38 654 48 q 663 58 666 76 q 669 94 669 141 l 669 271 q 669 315 666 343 q 663 371 655 386 q 646 402 635 409 q 624 416 605 416 q 592 416 582 412 q 571 408 560 400 q 549 392 541 383 q 533 375 529 365 q 524 354 522 342 q 521 329 521 300 l 521 141 q 521 108 522 90 q 523 73 527 62 q 531 51 539 44 q 548 37 566 32 l 566 0 l 333 0 l 333 32 q 356 38 365 48 q 373 58 376 76 q 379 94 379 141 l 379 271 q 379 304 378 326 q 376 348 374 362 q 371 375 365 386 q 360 396 354 402 q 347 409 338 412 q 329 416 315 416 q 297 416 278 404 q 258 393 244 373 q 231 353 231 330 l 231 141 q 231 95 234 77 q 236 59 245 48 q 254 38 276 32 l 276 0 l 42 0 l 42 32 q 65 39 74 49 q 83 59 87 77 q 90 94 90 141 l 90 341 q 90 377 89 395 q 87 412 83 423 q 78 433 69 440 q 59 446 36 451 l 36 484 l 169 488 l 231 488 z"},"#":{"x_min":0,"x_max":618,"ha":618,"o":"m 466 401 l 446 266 l 542 266 l 542 197 l 437 197 l 409 0 l 331 0 l 358 197 l 222 197 l 194 0 l 115 0 l 143 197 l 50 197 l 50 266 l 152 266 l 171 401 l 77 401 l 77 470 l 181 470 l 209 667 l 288 667 l 260 470 l 396 470 l 424 667 l 503 667 l 475 470 l 568 470 l 568 401 z m 250 401 l 231 266 l 368 266 l 387 401 z"},",":{"x_min":0,"x_max":232,"ha":232,"o":"m 177 147 q 182 127 184 103 q 187 79 187 59 q 187 19 173 -13 q 160 -44 131 -74 q 102 -105 49 -142 l 12 -100 q 33 -81 45 -61 q 57 -40 62 -15 q 67 10 67 47 q 67 91 61 147 z"},"n":{"x_min":0,"x_max":604,"ha":604,"o":"m 573 0 l 336 0 l 336 32 q 358 38 367 48 q 376 59 379 76 q 382 94 382 141 l 382 271 q 382 306 381 328 q 379 350 376 364 q 373 378 367 388 q 362 397 355 404 q 348 410 339 413 q 331 416 317 416 q 298 416 278 404 q 258 393 245 372 q 231 352 231 329 l 231 141 q 231 95 234 77 q 237 59 246 48 q 255 38 278 32 l 278 0 l 42 0 l 42 32 q 65 39 74 49 q 83 59 87 77 q 90 94 90 141 l 90 341 q 90 377 89 395 q 87 412 83 423 q 78 433 69 440 q 59 446 36 451 l 36 484 l 169 488 l 231 488 l 224 418 l 229 417 q 260 443 283 459 q 306 474 331 483 q 356 492 384 492 q 424 492 450 481 q 477 469 493 447 q 509 425 516 394 q 523 362 523 320 l 523 141 q 523 120 524 101 q 525 82 528 71 q 531 60 536 52 q 541 45 550 41 q 560 36 573 32 z"},"h":{"x_min":0,"x_max":597,"ha":597,"o":"m 227 420 q 271 459 306 476 q 341 492 377 492 q 431 492 460 472 q 490 453 503 416 q 517 378 517 319 l 517 141 q 517 120 517 101 q 518 82 521 71 q 524 60 529 52 q 534 45 543 41 q 553 36 566 32 l 566 0 l 329 0 l 329 32 q 352 38 361 48 q 369 58 372 76 q 375 94 375 141 l 375 268 q 375 317 372 344 q 369 371 362 386 q 354 401 342 408 q 330 416 311 416 q 292 416 272 404 q 251 393 238 373 q 225 353 225 331 l 225 141 q 225 114 225 99 q 226 84 228 76 q 229 68 232 62 q 234 55 239 50 q 243 44 251 40 q 260 36 273 32 l 273 0 l 34 0 l 34 32 q 49 36 57 40 q 65 45 70 51 q 75 57 78 67 q 82 76 83 93 q 83 110 83 141 l 83 522 q 83 564 83 584 q 82 604 80 617 q 77 630 72 638 q 67 646 58 651 q 49 656 28 660 l 28 692 l 164 699 l 225 699 l 225 420 z"},"z":{"x_min":0,"x_max":479,"ha":479,"o":"m 197 52 l 300 52 q 322 52 337 61 q 353 70 365 93 q 377 116 388 157 l 447 157 l 447 0 l 32 0 l 32 32 l 282 433 l 185 433 q 162 433 147 425 q 133 417 122 398 q 110 380 95 336 l 36 336 l 36 484 l 447 484 l 447 452 z"},"B":{"x_min":0,"x_max":651,"ha":651,"o":"m 467 349 q 536 328 572 287 q 607 246 607 189 q 607 140 591 104 q 575 68 541 45 q 508 21 463 11 q 417 0 348 0 l 47 0 l 47 32 q 65 37 75 43 q 86 48 91 58 q 96 68 98 84 q 99 99 99 123 l 99 543 q 99 566 98 582 q 97 598 92 607 q 86 617 76 623 q 65 629 47 634 l 47 667 l 367 667 q 421 667 456 661 q 502 654 536 636 q 566 620 583 590 q 600 560 600 519 q 600 409 467 354 z m 315 375 q 364 375 392 389 q 420 403 434 429 q 449 455 449 501 q 449 542 433 565 q 417 589 389 599 q 360 609 317 609 q 283 609 250 607 l 250 375 z m 250 59 q 279 57 317 57 q 363 57 393 69 q 423 80 440 109 q 457 137 457 187 q 457 222 448 247 q 439 272 421 288 q 404 303 379 310 q 355 317 318 317 l 250 317 z"},"K":{"x_min":0,"x_max":682,"ha":682,"o":"m 590 130 q 609 101 622 83 q 635 66 645 56 q 654 46 664 41 q 673 36 689 32 l 689 0 l 424 0 l 424 32 q 441 35 447 40 q 453 46 453 55 q 453 63 450 71 q 448 78 440 93 q 432 107 406 146 l 332 262 q 318 283 308 294 q 298 306 288 311 q 278 316 260 316 l 250 316 l 250 123 q 250 105 251 91 q 252 76 255 67 q 258 58 264 51 q 270 45 279 40 q 289 36 303 32 l 303 0 l 47 0 l 47 32 q 65 37 75 43 q 86 48 91 58 q 96 68 98 84 q 99 99 99 123 l 99 543 q 99 566 98 582 q 97 598 92 607 q 86 617 76 623 q 65 629 47 634 l 47 667 l 303 667 l 303 634 q 283 629 273 623 q 264 616 259 607 q 254 599 252 585 q 250 571 250 543 l 250 370 l 261 370 q 283 370 296 375 q 310 379 323 392 q 337 405 377 451 q 417 498 435 523 q 453 548 459 565 q 466 581 466 597 q 466 614 454 624 q 443 634 422 634 l 422 667 l 671 667 l 671 633 q 653 630 640 623 q 626 616 609 601 q 592 585 566 556 l 419 392 z"},"R":{"x_min":0,"x_max":662,"ha":662,"o":"m 303 0 l 47 0 l 47 32 q 65 37 75 43 q 86 48 91 58 q 96 68 98 84 q 99 99 99 123 l 99 543 q 99 566 98 582 q 97 598 92 607 q 86 617 76 623 q 65 629 47 634 l 47 667 l 332 667 q 389 667 429 658 q 470 650 500 634 q 525 620 543 599 q 561 579 570 551 q 580 523 580 487 q 580 439 563 405 q 546 371 517 348 q 489 325 441 305 l 441 300 q 477 285 501 259 q 524 232 543 192 l 574 126 q 595 82 615 59 q 635 37 663 32 l 663 0 l 475 0 q 447 39 411 116 l 373 200 q 356 237 344 252 q 332 268 319 274 q 306 280 279 280 l 250 280 l 250 123 q 250 86 254 71 q 257 57 267 48 q 277 39 303 32 z m 250 608 l 250 337 l 299 337 q 338 337 363 347 q 389 358 404 377 q 418 396 424 421 q 430 446 430 477 q 430 543 398 576 q 367 609 306 609 q 264 609 250 608 z"},"T":{"x_min":0,"x_max":639,"ha":639,"o":"m 185 0 l 185 32 q 206 36 218 41 q 229 47 235 57 q 241 67 243 83 q 244 99 244 123 l 244 609 l 205 609 q 175 609 160 603 q 144 596 133 581 q 121 566 113 542 q 104 517 99 495 l 32 495 l 32 667 l 607 667 l 607 495 l 540 495 q 531 528 525 544 q 520 560 513 571 q 507 582 500 589 q 492 596 484 601 q 476 605 463 607 q 451 609 431 609 l 396 609 l 396 123 q 396 97 397 83 q 398 70 402 62 q 406 53 412 48 q 417 43 427 39 q 438 35 455 32 l 455 0 z"},"P":{"x_min":0,"x_max":614,"ha":614,"o":"m 250 122 q 250 90 253 76 q 255 63 261 55 q 267 47 277 42 q 288 36 310 32 l 310 0 l 47 0 l 47 32 q 65 37 75 43 q 86 48 91 58 q 96 68 98 84 q 99 99 99 123 l 99 543 q 99 566 98 582 q 97 598 92 607 q 86 617 76 623 q 65 629 47 634 l 47 667 l 331 667 q 454 667 516 622 q 577 578 577 486 q 577 421 548 374 q 520 326 465 301 q 410 276 328 276 q 281 276 250 278 z m 250 333 l 292 333 q 341 333 370 347 q 399 361 413 392 q 427 422 427 473 q 427 524 413 554 q 399 584 372 597 q 345 609 303 609 q 269 609 250 608 z"},"|":{"x_min":0,"x_max":320,"ha":320,"o":"m 207 -210 l 113 -210 l 113 699 l 207 699 z"},"t":{"x_min":0,"x_max":365,"ha":365,"o":"m 376 59 q 333 22 298 7 q 263 -8 224 -8 q 151 -8 115 31 q 79 71 79 150 l 79 423 l 18 423 l 18 457 q 48 462 62 472 q 76 481 84 498 q 92 514 96 541 q 101 567 104 606 l 220 606 l 220 484 l 359 484 l 359 423 l 220 423 l 220 203 q 220 148 225 122 q 230 95 243 83 q 255 70 273 70 q 287 70 297 73 q 308 75 320 82 q 332 88 345 100 z"},"M":{"x_min":0,"x_max":846,"ha":846,"o":"m 799 634 q 773 627 764 618 q 754 610 751 595 q 747 581 747 544 l 747 122 q 747 92 750 75 q 753 58 762 49 q 771 40 799 32 l 799 0 l 548 0 l 548 32 q 570 38 578 42 q 586 47 591 54 q 596 61 598 75 q 600 90 600 123 l 600 362 q 600 402 602 456 q 603 509 604 532 l 594 532 q 588 512 582 493 q 575 475 557 426 l 426 74 l 340 74 l 203 470 q 190 503 181 537 l 172 537 q 177 456 177 346 l 177 122 q 177 85 181 71 q 184 57 194 48 q 205 39 230 32 l 230 0 l 45 0 l 45 32 q 63 37 74 43 q 84 49 90 59 q 95 68 96 83 q 98 99 98 122 l 98 544 q 98 582 94 595 q 91 609 82 618 q 73 626 45 634 l 45 667 l 288 667 l 423 266 l 570 667 l 799 667 z"},"g":{"x_min":0,"x_max":520,"ha":520,"o":"m 514 419 l 431 428 l 429 423 q 442 409 451 385 q 460 362 460 329 q 460 244 409 200 q 357 156 257 156 q 209 156 178 165 q 154 143 154 117 q 154 103 160 95 q 166 87 181 83 q 195 79 222 79 l 343 79 q 425 79 465 47 q 506 15 506 -52 q 506 -104 476 -142 q 447 -179 392 -199 q 336 -219 261 -219 q 206 -219 161 -214 q 116 -209 84 -196 q 52 -183 35 -161 q 18 -138 18 -104 q 18 -76 35 -52 q 53 -29 84 -12 q 64 2 55 21 q 45 41 45 68 q 45 91 55 111 q 64 131 80 148 q 96 164 122 184 q 83 205 64 240 q 44 275 44 322 q 44 367 61 400 q 77 432 106 453 q 134 473 173 483 q 212 492 257 492 q 282 492 301 490 q 320 487 338 484 l 514 484 z m 185 328 q 185 266 202 236 q 219 206 256 206 q 290 206 308 234 q 326 262 326 319 q 326 379 308 410 q 291 442 255 442 q 219 442 202 414 q 185 386 185 328 z m 167 -31 q 149 -45 140 -61 q 131 -77 131 -98 q 131 -133 162 -150 q 192 -167 258 -167 q 320 -167 352 -146 q 384 -126 384 -89 q 384 -72 378 -61 q 372 -49 355 -41 q 338 -33 307 -33 l 223 -33 q 187 -33 167 -31 z"},"j":{"x_min":0,"x_max":302,"ha":302,"o":"m 221 679 l 221 560 l 87 560 l 87 679 z m 225 39 q 225 -19 215 -59 q 205 -99 181 -129 q 157 -159 115 -182 q 72 -205 30 -216 l 7 -159 q 40 -146 55 -132 q 70 -119 77 -97 q 83 -76 83 -39 l 83 368 q 83 392 81 406 q 79 421 73 430 q 67 438 56 443 q 46 448 29 451 l 29 484 l 164 488 l 225 488 z"},"i":{"x_min":0,"x_max":314,"ha":314,"o":"m 227 679 l 227 560 l 93 560 l 93 679 z m 42 32 q 65 39 74 49 q 83 59 87 77 q 90 94 90 141 l 90 368 q 90 392 88 406 q 85 421 79 430 q 73 438 63 443 q 52 448 36 451 l 36 484 l 170 488 l 231 488 l 231 141 q 231 114 232 99 q 232 84 234 76 q 235 68 238 62 q 241 55 245 50 q 250 44 258 40 q 266 36 280 32 l 280 0 l 42 0 z"},"y":{"x_min":0,"x_max":531,"ha":531,"o":"m 288 -22 q 256 -93 228 -133 q 200 -173 168 -193 q 135 -213 87 -213 q 50 -213 19 -204 l 19 -92 l 73 -92 q 80 -115 89 -124 q 99 -132 116 -132 q 134 -132 149 -122 q 164 -112 183 -84 q 202 -56 229 0 l 201 0 l 74 367 q 60 405 52 420 q 44 434 34 442 q 24 449 9 452 l 9 484 l 253 484 l 253 452 q 230 448 219 439 q 208 430 208 413 q 208 389 221 352 l 292 138 l 369 325 q 379 349 384 366 q 389 384 389 401 q 389 422 377 435 q 365 449 344 452 l 344 484 l 534 484 l 534 452 q 520 447 511 441 q 502 435 495 424 q 487 414 477 394 q 466 374 447 333 z"},"@":{"x_min":0,"x_max":921,"ha":921,"o":"m 530 195 l 525 196 q 493 145 453 115 q 412 86 372 86 q 337 86 314 104 q 290 122 279 152 q 267 183 267 221 q 267 261 277 302 q 286 343 305 380 q 325 418 353 447 q 380 476 418 493 q 456 510 500 510 q 527 510 550 504 q 573 499 595 484 l 635 511 l 684 500 l 629 253 q 623 227 622 215 q 620 203 620 194 q 620 171 629 160 q 638 149 656 149 q 688 149 712 175 q 737 200 752 247 q 766 293 766 347 q 766 417 748 467 q 729 518 695 550 q 662 583 615 598 q 567 613 510 613 q 407 613 330 568 q 253 523 212 442 q 170 360 170 257 q 170 169 201 108 q 232 47 292 16 q 353 -15 438 -15 q 479 -15 517 -9 q 554 -3 598 11 l 614 -48 q 577 -62 530 -69 q 482 -77 433 -77 q 306 -77 223 -37 q 140 3 100 79 q 61 155 61 264 q 61 347 91 421 q 121 495 180 553 q 239 611 323 643 q 407 675 505 675 q 571 675 624 663 q 676 651 716 631 q 755 610 783 581 q 812 552 829 518 q 847 483 855 444 q 864 405 864 365 q 864 284 837 219 q 810 155 760 121 q 710 86 646 86 q 622 86 601 91 q 580 96 564 108 q 548 120 539 140 q 530 160 530 195 z m 553 409 q 553 435 543 447 q 532 459 509 459 q 494 459 480 454 q 466 449 452 437 q 437 424 424 404 q 410 384 399 354 q 388 324 382 292 q 375 259 375 227 q 375 191 384 175 q 392 158 413 158 q 433 158 451 171 q 470 184 490 213 q 511 241 523 268 q 535 294 543 334 q 549 364 551 380 q 553 396 553 409 z"},".":{"x_min":0,"x_max":232,"ha":232,"o":"m 182 147 l 182 0 l 50 0 l 50 147 z"},"p":{"x_min":0,"x_max":597,"ha":597,"o":"m 225 -87 q 225 -124 229 -139 q 232 -154 242 -163 q 252 -172 278 -178 l 278 -210 l 35 -210 l 35 -178 q 58 -171 67 -163 q 76 -154 80 -139 q 83 -125 83 -87 l 83 340 q 83 375 83 389 q 82 404 79 414 q 77 424 72 431 q 67 438 57 442 q 48 447 29 451 l 29 484 l 165 488 l 225 488 l 217 417 l 223 416 q 265 457 302 474 q 338 492 376 492 q 463 492 507 431 q 550 370 550 248 q 550 163 525 106 q 499 49 448 21 q 397 -8 323 -8 q 273 -8 225 5 z m 225 160 q 225 100 245 72 q 266 43 310 43 q 354 43 378 90 q 402 137 402 225 q 402 322 381 369 q 359 416 314 416 q 292 416 272 404 q 251 393 238 372 q 225 352 225 326 z"},"X":{"x_min":0,"x_max":619,"ha":619,"o":"m 295 667 l 295 634 q 272 632 262 624 q 253 616 253 599 q 253 591 256 580 q 260 570 268 555 q 275 541 294 509 l 339 434 l 398 521 q 418 549 425 565 q 431 580 431 598 q 431 613 420 623 q 410 632 391 634 l 391 667 l 592 667 l 592 634 q 578 630 565 621 q 553 613 536 593 q 520 573 483 521 l 377 371 l 537 108 q 545 95 553 82 q 562 69 570 59 q 578 49 584 44 q 590 39 596 36 q 602 34 608 32 l 608 0 l 337 0 l 337 32 q 358 35 369 42 q 379 50 379 67 q 379 73 377 80 q 375 87 371 97 q 367 106 363 114 q 359 122 346 143 l 278 255 l 199 137 q 189 123 183 111 q 177 100 174 90 q 172 80 172 67 q 172 54 182 44 q 193 34 212 32 l 212 0 l 10 0 l 10 32 q 26 37 40 47 q 53 57 69 76 q 85 95 113 135 l 240 318 l 117 522 q 97 556 83 578 q 68 600 59 611 q 49 623 41 627 q 34 632 23 634 l 23 667 z"},"*":{"x_min":0,"x_max":453,"ha":453,"o":"m 273 308 l 179 308 l 205 465 l 80 365 l 33 446 l 182 503 l 34 560 l 81 641 l 205 541 l 180 699 l 273 699 l 248 542 l 373 641 l 419 561 l 270 503 l 419 445 l 373 365 l 248 465 z"},"Y":{"x_min":0,"x_max":604,"ha":604,"o":"m 372 256 l 372 123 q 372 97 374 83 q 375 70 379 62 q 383 53 388 48 q 394 43 404 39 q 414 35 431 32 l 431 0 l 162 0 l 162 32 q 182 36 194 41 q 206 46 211 57 q 217 67 219 83 q 221 99 221 123 l 221 256 l 88 536 q 71 571 62 588 q 50 608 42 617 q 34 626 27 629 q 21 633 8 634 l 8 667 l 269 667 l 269 634 q 231 629 231 597 q 231 584 237 567 q 243 549 257 520 l 339 336 l 429 516 q 442 542 447 560 q 452 578 452 596 q 452 613 442 623 q 432 633 414 634 l 414 667 l 610 667 l 610 634 q 597 631 588 626 q 580 621 569 610 q 559 599 545 577 q 531 555 512 520 z"},"c":{"x_min":0,"x_max":469,"ha":469,"o":"m 414 125 l 452 80 q 404 33 359 12 q 314 -8 262 -8 q 156 -8 100 54 q 44 117 44 235 q 44 315 75 374 q 105 432 163 462 q 220 492 293 492 q 333 492 372 487 q 412 481 444 471 l 444 354 l 347 354 q 340 399 325 420 q 311 441 283 441 q 265 441 249 432 q 232 423 220 401 q 208 379 200 342 q 193 304 193 247 q 193 190 204 151 q 214 111 238 90 q 262 69 301 69 q 330 69 355 81 q 380 93 414 125 z"},"!":{"x_min":0,"x_max":335,"ha":335,"o":"m 252 667 l 208 218 l 126 218 l 87 667 z m 233 147 l 233 0 l 102 0 l 102 147 z"},"/":{"x_min":0,"x_max":505,"ha":505,"o":"m 477 699 l 125 -210 l 28 -210 l 382 699 z"},"[":{"x_min":0,"x_max":368,"ha":368,"o":"m 347 -210 l 94 -210 l 94 699 l 347 699 l 347 646 l 233 646 l 233 -157 l 347 -157 z"},"6":{"x_min":0,"x_max":592,"ha":592,"o":"m 465 641 l 465 610 q 358 608 292 544 q 225 480 203 362 l 208 360 q 246 386 285 398 q 323 411 369 411 q 425 411 466 386 q 506 361 526 316 q 547 271 547 212 q 547 147 520 97 q 492 48 435 20 q 378 -8 296 -8 q 220 -8 166 22 q 111 53 83 112 q 54 171 54 255 q 54 370 102 462 q 150 554 238 610 q 327 667 438 674 z m 312 343 q 288 343 267 336 q 246 329 229 317 q 213 305 208 298 q 202 290 200 276 q 197 262 197 226 q 197 137 222 92 q 247 47 298 47 q 328 47 347 58 q 367 69 379 90 q 392 110 397 138 q 402 167 402 202 q 402 271 379 307 q 356 343 312 343 z"},"r":{"x_min":0,"x_max":461,"ha":461,"o":"m 224 415 l 230 413 q 266 455 304 474 q 341 492 385 492 q 415 492 448 486 l 448 351 l 359 351 q 351 379 338 395 q 324 410 302 410 q 291 410 278 403 q 265 396 254 385 q 243 373 239 360 q 234 348 232 335 q 231 322 231 297 l 231 141 q 231 95 234 76 q 238 58 248 47 q 258 37 283 32 l 283 0 l 42 0 l 42 32 q 65 39 74 49 q 83 59 87 77 q 90 94 90 141 l 90 341 q 90 377 89 395 q 87 412 83 423 q 78 433 69 440 q 59 446 36 451 l 36 484 l 169 488 l 231 488 z"},"2":{"x_min":0,"x_max":592,"ha":592,"o":"m 368 120 q 400 120 416 124 q 431 129 440 140 q 449 152 455 175 l 511 175 l 500 0 l 53 0 l 53 32 q 73 79 112 134 q 151 189 207 255 q 259 317 287 357 q 314 397 328 433 q 342 468 342 506 q 342 560 318 591 q 294 621 252 621 q 213 621 188 594 q 162 566 150 506 l 62 506 l 62 622 q 122 646 156 655 q 189 665 222 669 q 255 674 294 674 q 366 674 411 655 q 457 636 477 603 q 497 570 497 526 q 497 487 483 454 q 468 421 433 378 q 397 336 313 257 q 276 220 243 183 q 210 146 195 125 l 195 120 z"},"{":{"x_min":0,"x_max":393,"ha":393,"o":"m 360 -210 q 272 -210 221 -191 q 170 -172 148 -134 q 125 -96 125 -31 l 125 108 q 125 150 116 174 q 107 198 89 208 q 70 217 39 217 l 39 271 q 70 271 89 281 q 107 290 116 314 q 125 338 125 380 l 125 520 q 125 584 148 622 q 170 661 221 680 q 272 699 360 699 l 372 699 l 372 646 q 337 646 318 640 q 300 635 288 623 q 277 611 271 585 q 264 560 264 513 l 264 422 q 264 374 254 342 q 245 310 221 287 q 197 264 156 249 l 156 240 q 197 225 222 201 q 246 176 255 144 q 264 112 264 66 l 264 -25 q 264 -62 268 -85 q 272 -108 279 -121 q 286 -134 296 -141 q 306 -149 323 -153 q 339 -157 372 -157 l 372 -210 z"},"9":{"x_min":0,"x_max":592,"ha":592,"o":"m 159 21 l 159 56 q 191 57 215 62 q 243 68 268 81 q 293 94 312 113 q 336 136 352 165 q 367 195 376 230 q 385 265 390 303 l 385 305 q 347 279 311 268 q 274 256 224 256 q 166 256 126 281 q 85 305 65 349 q 45 394 45 453 q 45 518 76 569 q 106 620 164 647 q 221 674 299 674 q 377 674 431 642 q 485 609 512 547 q 539 485 539 397 q 539 275 497 187 q 456 99 376 50 q 297 0 185 -8 z m 280 323 q 298 323 314 326 q 330 330 344 337 q 357 344 369 354 q 381 364 385 370 q 389 376 392 389 q 395 401 395 422 q 395 518 369 569 q 343 620 294 620 q 265 620 245 608 q 226 597 213 577 q 201 556 195 528 q 190 499 190 465 q 190 323 280 323 z"}," ":{"x_min":0,"x_max":220,"ha":220,"o":""},"I":{"x_min":0,"x_max":350,"ha":350,"o":"m 250 123 q 250 105 251 91 q 252 76 255 67 q 258 58 264 51 q 270 45 279 40 q 289 36 303 32 l 303 0 l 47 0 l 47 32 q 65 37 75 43 q 86 48 91 58 q 96 68 98 84 q 99 99 99 123 l 99 544 q 99 567 98 583 q 97 598 92 608 q 86 618 76 624 q 65 629 47 634 l 47 667 l 303 667 l 303 634 q 283 629 274 623 q 264 617 259 608 q 254 599 252 585 q 250 571 250 543 z"},"H":{"x_min":0,"x_max":722,"ha":722,"o":"m 623 123 q 623 85 626 71 q 629 57 639 48 q 648 39 674 32 l 674 0 l 419 0 l 419 32 q 448 40 456 47 q 464 54 468 68 q 471 81 471 123 l 471 318 l 250 318 l 250 123 q 250 105 251 91 q 252 76 255 67 q 258 58 264 51 q 270 45 279 40 q 289 36 303 32 l 303 0 l 47 0 l 47 32 q 65 37 75 43 q 86 48 91 58 q 96 68 98 84 q 99 99 99 123 l 99 543 q 99 566 98 582 q 97 598 92 607 q 86 617 76 623 q 65 629 47 634 l 47 667 l 303 667 l 303 634 q 277 627 268 618 q 258 609 254 595 q 250 581 250 543 l 250 380 l 471 380 l 471 543 q 471 580 468 594 q 465 609 455 618 q 446 627 419 634 l 419 667 l 674 667 l 674 634 q 653 628 643 622 q 633 615 629 605 q 625 595 624 582 q 623 569 623 543 z"},"4":{"x_min":0,"x_max":592,"ha":592,"o":"m 235 32 q 252 37 263 43 q 273 48 279 58 q 284 67 286 83 q 287 98 287 121 l 287 193 l 25 193 l 25 246 l 322 670 l 432 670 l 432 255 l 447 255 q 471 255 480 258 q 490 261 497 270 q 504 279 511 301 l 562 301 l 556 193 l 432 193 l 432 121 q 432 95 434 79 q 437 64 442 55 q 448 46 458 41 q 469 37 484 32 l 484 0 l 235 0 z m 120 255 l 287 255 l 287 367 q 287 437 292 515 l 287 515 l 120 263 z"},"~":{"x_min":0,"x_max":592,"ha":592,"o":"m 28 254 q 44 278 61 302 q 78 325 92 340 q 106 354 118 363 q 129 372 141 377 q 152 383 164 385 q 176 388 188 388 q 208 388 225 382 q 243 377 260 367 q 277 357 310 334 q 349 306 367 297 q 385 289 404 289 q 416 289 425 292 q 435 295 446 302 q 456 310 466 322 q 476 333 499 366 l 565 319 q 532 269 508 241 q 484 214 459 200 q 434 186 403 186 q 387 186 372 190 q 357 194 338 203 q 320 213 282 240 q 254 260 241 268 q 229 275 216 280 q 203 284 191 284 q 179 284 168 281 q 158 278 147 271 q 137 263 127 251 q 116 239 94 208 z"},"D":{"x_min":0,"x_max":705,"ha":705,"o":"m 301 667 q 382 667 437 654 q 492 641 534 614 q 577 586 603 549 q 629 511 642 461 q 654 411 654 348 q 654 271 636 211 q 619 150 583 107 q 551 69 505 44 q 459 19 399 9 q 347 0 269 0 l 47 0 l 47 32 q 65 37 75 43 q 86 48 91 58 q 96 68 98 84 q 99 99 99 123 l 99 543 q 99 566 98 582 q 97 598 92 607 q 86 617 76 623 q 65 629 47 634 l 47 667 z m 250 59 q 259 58 295 58 q 349 58 385 73 q 413 85 432 105 q 463 139 479 193 q 497 251 497 336 q 497 429 472 490 q 447 551 402 580 q 357 609 294 609 q 264 609 250 608 z"},"^":{"x_min":0,"x_max":592,"ha":592,"o":"m 404 326 l 294 580 l 186 326 l 75 326 l 237 674 l 354 674 l 517 326 z"},"0":{"x_min":0,"x_max":592,"ha":592,"o":"m 290 -8 q 214 -8 162 26 q 111 59 83 134 q 55 208 55 327 q 55 439 83 516 q 112 594 167 634 q 222 674 299 674 q 419 674 478 593 q 537 511 537 342 q 537 169 474 81 q 412 -8 290 -8 z m 204 341 q 204 234 213 170 q 223 107 243 77 q 264 47 298 47 q 316 47 330 56 q 344 65 355 84 q 366 104 374 135 q 382 167 385 215 q 389 263 389 321 q 389 409 382 468 q 375 528 363 560 q 351 592 334 606 q 318 620 296 620 q 270 620 252 603 q 234 585 224 551 q 213 516 208 464 q 204 412 204 341 z"},"F":{"x_min":0,"x_max":551,"ha":551,"o":"m 250 123 q 250 97 252 83 q 253 70 257 62 q 261 53 267 48 q 272 43 282 39 q 292 35 310 32 l 310 0 l 47 0 l 47 32 q 65 37 75 42 q 86 48 91 58 q 96 68 98 84 q 99 100 99 123 l 99 543 q 99 566 98 582 q 97 598 92 607 q 86 617 76 623 q 65 629 47 634 l 47 667 l 519 667 l 519 511 l 452 511 q 436 558 425 574 q 414 590 398 600 q 382 609 345 609 l 250 609 l 250 361 l 313 361 q 336 361 348 368 q 361 375 369 392 q 377 408 382 438 l 438 438 l 438 226 l 382 226 q 376 256 368 273 q 360 290 348 297 q 335 304 313 304 l 250 304 z"},"`":{"x_min":0,"x_max":285,"ha":285,"o":"m 128 720 l 235 563 l 196 531 l 26 688 l 26 720 z"},"k":{"x_min":0,"x_max":592,"ha":592,"o":"m 387 308 l 513 122 q 541 80 554 64 q 567 49 577 42 q 587 36 602 32 l 602 0 l 363 0 l 363 32 q 385 37 385 55 q 385 68 376 85 q 368 103 343 139 l 305 196 q 292 215 285 223 q 277 232 269 236 q 262 241 248 241 l 225 241 l 225 141 q 225 95 228 77 q 230 60 240 49 q 249 39 273 32 l 273 0 l 34 0 l 34 32 q 49 36 57 40 q 65 45 70 51 q 75 57 78 67 q 82 76 83 93 q 83 110 83 141 l 83 522 q 83 564 83 584 q 82 604 80 617 q 77 630 72 638 q 67 646 58 651 q 49 656 28 660 l 28 692 l 164 699 l 225 699 l 225 288 l 241 288 q 258 288 268 291 q 277 294 288 302 q 298 310 320 329 q 342 349 354 365 q 365 380 369 391 q 373 403 373 414 q 373 447 330 453 l 330 484 l 574 484 l 574 453 q 555 450 532 436 q 508 421 458 374 z"},"u":{"x_min":0,"x_max":597,"ha":597,"o":"m 31 484 l 221 484 l 221 213 q 221 167 224 140 q 227 114 235 98 q 244 83 256 76 q 268 69 286 69 q 304 69 324 80 q 344 91 358 112 q 372 132 372 155 l 372 343 q 372 379 371 396 q 369 414 365 423 q 361 433 352 440 q 343 446 323 452 l 323 484 l 514 484 l 514 143 q 514 105 515 88 q 516 71 521 61 q 525 51 535 44 q 544 38 567 33 l 567 0 l 435 -4 l 375 -4 l 380 66 l 374 67 q 329 25 293 9 q 257 -8 221 -8 q 169 -8 138 11 q 107 31 94 68 q 80 105 80 165 l 80 343 q 80 371 79 385 q 79 400 77 408 q 76 416 73 423 q 70 429 66 435 q 61 440 53 444 q 45 449 31 452 z"},"]":{"x_min":0,"x_max":368,"ha":368,"o":"m 21 -157 l 135 -157 l 135 646 l 21 646 l 21 699 l 273 699 l 273 -210 l 21 -210 z"},"U":{"x_min":0,"x_max":676,"ha":676,"o":"m 477 544 q 477 581 474 595 q 471 609 461 618 q 452 627 425 634 l 425 667 l 640 667 l 640 634 q 623 629 612 624 q 602 618 597 608 q 591 598 590 583 q 588 567 588 544 l 588 239 q 588 178 579 137 q 569 97 548 69 q 528 41 497 24 q 467 7 429 0 q 391 -8 343 -8 q 274 -8 226 7 q 178 21 148 50 q 118 79 104 121 q 89 162 89 228 l 89 543 q 89 566 88 582 q 87 598 82 607 q 77 617 66 623 q 56 629 37 634 l 37 667 l 293 667 l 293 634 q 273 629 264 623 q 254 617 250 608 q 245 599 243 585 q 241 571 241 543 l 241 221 q 241 183 246 151 q 250 119 263 96 q 276 74 299 62 q 322 49 358 49 q 408 49 433 69 q 457 89 467 125 q 477 161 477 232 z"},"o":{"x_min":0,"x_max":569,"ha":569,"o":"m 279 -8 q 207 -8 155 17 q 103 42 74 98 q 44 153 44 239 q 44 304 62 352 q 81 400 113 431 q 145 462 190 477 q 234 492 287 492 q 405 492 465 430 q 525 368 525 248 q 525 163 495 105 q 465 48 410 20 q 355 -8 279 -8 z m 193 250 q 193 146 216 94 q 239 43 286 43 q 312 43 329 56 q 347 69 357 94 q 368 119 372 154 q 376 189 376 232 q 376 337 353 389 q 330 441 285 441 q 251 441 231 420 q 211 399 202 357 q 193 315 193 250 z"},"N":{"x_min":0,"x_max":679,"ha":679,"o":"m 639 667 l 639 634 q 619 628 611 624 q 603 619 597 612 q 592 604 589 590 q 586 575 586 544 l 586 0 l 462 0 l 242 380 q 198 457 177 501 l 172 501 q 177 396 177 279 l 177 122 q 177 85 181 71 q 185 56 194 48 q 204 39 230 32 l 230 0 l 45 0 l 45 32 q 63 37 74 43 q 84 49 90 59 q 95 69 96 84 q 98 99 98 122 l 98 544 q 98 581 94 595 q 91 609 81 618 q 71 627 45 634 l 45 667 l 243 667 l 416 366 q 432 338 458 290 q 484 241 504 198 l 512 198 q 506 315 506 453 l 506 544 q 506 576 504 590 q 501 604 496 611 q 491 619 483 624 q 474 628 454 634 l 454 667 z"},"+":{"x_min":0,"x_max":592,"ha":592,"o":"m 348 236 l 348 48 l 244 48 l 244 236 l 59 236 l 59 335 l 244 335 l 244 523 l 348 523 l 348 335 l 534 335 l 534 236 z"},"G":{"x_min":0,"x_max":646,"ha":646,"o":"m 559 648 l 559 510 l 492 510 q 481 551 467 573 q 452 595 429 606 q 407 617 371 617 q 323 617 286 588 q 249 558 227 493 q 206 429 206 330 q 206 244 220 181 q 234 119 264 84 q 293 49 337 49 q 380 49 400 75 q 421 101 421 157 l 421 175 q 421 212 418 228 q 416 244 411 252 q 406 260 397 265 q 389 270 368 276 l 368 308 l 618 308 l 618 276 q 594 269 585 259 q 576 250 573 235 q 570 219 570 191 l 570 7 l 500 -7 l 466 28 q 408 -8 333 -8 q 190 -8 120 75 q 50 159 50 328 q 50 417 75 484 q 100 551 144 594 q 188 636 244 655 q 299 674 363 674 q 470 674 559 648 z"},"q":{"x_min":0,"x_max":591,"ha":591,"o":"m 373 65 q 346 40 324 25 q 302 10 276 1 q 250 -8 221 -8 q 134 -8 91 53 q 47 115 47 237 q 47 319 74 376 q 101 434 153 463 q 206 492 279 492 q 302 492 325 489 q 347 486 367 481 q 386 476 415 464 l 451 492 l 514 483 l 514 -87 q 514 -125 518 -139 q 521 -154 531 -163 q 540 -171 562 -178 l 562 -210 l 319 -210 l 319 -178 q 344 -172 354 -164 q 364 -155 368 -140 q 373 -125 373 -87 z m 373 324 q 373 384 353 413 q 333 441 291 441 q 261 441 239 420 q 217 398 206 357 q 195 316 195 260 q 195 164 216 116 q 237 69 282 69 q 304 69 325 80 q 346 91 359 112 q 373 134 373 163 z"},"d":{"x_min":0,"x_max":597,"ha":597,"o":"m 514 143 q 514 105 515 88 q 516 71 521 61 q 525 51 535 44 q 544 38 567 33 l 567 0 l 435 -4 l 375 -4 l 380 66 l 373 66 q 337 31 299 11 q 260 -8 224 -8 q 135 -8 91 53 q 47 114 47 237 q 47 320 74 377 q 101 434 154 463 q 207 492 281 492 q 303 492 323 490 q 344 487 373 479 l 373 523 q 373 576 371 597 q 370 619 365 631 q 360 642 351 648 q 342 655 317 660 l 317 692 l 453 699 l 514 699 z m 373 324 q 373 384 353 413 q 333 441 291 441 q 261 441 239 420 q 217 398 206 357 q 195 316 195 260 q 195 164 216 116 q 237 69 282 69 q 303 69 323 79 q 344 90 358 112 q 373 133 373 162 z"},"1":{"x_min":0,"x_max":592,"ha":592,"o":"m 392 136 q 392 108 395 94 q 398 79 406 70 q 414 61 429 56 q 444 51 467 48 q 490 45 528 44 l 528 0 l 106 0 l 106 44 q 161 47 184 51 q 207 55 219 63 q 231 72 237 87 q 243 102 243 136 l 243 489 q 243 509 235 518 q 228 527 214 527 q 202 527 180 516 q 158 504 107 470 l 77 521 l 332 674 l 395 674 q 392 627 392 544 z"},"5":{"x_min":0,"x_max":592,"ha":592,"o":"m 77 30 l 77 152 l 165 152 q 177 99 204 73 q 231 47 273 47 q 327 47 352 80 q 377 113 377 182 q 377 250 345 285 q 312 321 250 321 q 226 321 198 316 q 171 312 149 306 l 105 333 l 105 667 l 394 667 q 412 667 420 669 q 429 671 434 677 q 439 683 446 699 l 500 699 l 490 543 l 190 543 l 190 367 q 219 376 250 380 q 280 384 325 384 q 385 384 431 362 q 477 339 502 297 q 527 254 527 196 q 527 129 497 83 q 466 38 409 15 q 352 -8 272 -8 q 221 -8 168 2 q 115 13 77 30 z"}}}
